<svg width="22" height="22" viewBox="0 0 22 22" fill="none" xmlns="http://www.w3.org/2000/svg">
<g clip-path="url(#clip0_1_662)">
<path d="M2.52081 -5.02075L4.42748 -4.69075L5.31023 5.82617C5.34414 6.24001 5.53284 6.62586 5.83867 6.90672C6.14451 7.18758 6.545 7.3428 6.96023 7.34142H16.9611C17.3586 7.34186 17.743 7.19873 18.0435 6.93835C18.344 6.67797 18.5403 6.31786 18.5964 5.92425L19.4672 -0.0872519C19.4904 -0.247128 19.4819 -0.410011 19.4421 -0.566588C19.4023 -0.723165 19.3321 -0.870365 19.2354 -0.99977C19.1387 -1.12917 19.0174 -1.23825 18.8785 -1.32075C18.7396 -1.40325 18.5858 -1.45756 18.4259 -1.48059C18.3672 -1.487 4.73365 -1.49159 4.73365 -1.49159" stroke="#272343" stroke-width="1.5" stroke-linecap="round" stroke-linejoin="round"/>
<path d="M12.9479 1.89551H15.4898" stroke="currentColor" stroke-width="1.5" stroke-linecap="round" stroke-linejoin="round"/>
<path fill-rule="evenodd" clip-rule="evenodd" d="M6.5578 10.5195C6.62502 10.5166 6.69213 10.5274 6.75509 10.5511C6.81805 10.5748 6.87556 10.6111 6.92414 10.6576C6.97273 10.7042 7.01139 10.7601 7.03781 10.822C7.06422 10.8838 7.07784 10.9504 7.07784 11.0177C7.07784 11.085 7.06422 11.1516 7.03781 11.2135C7.01139 11.2754 6.97273 11.3313 6.92414 11.3778C6.87556 11.4243 6.81805 11.4606 6.75509 11.4843C6.69213 11.5081 6.62502 11.5188 6.5578 11.5159C6.42936 11.5104 6.30801 11.4555 6.21908 11.3627C6.13015 11.2699 6.08051 11.1463 6.08051 11.0177C6.08051 10.8892 6.13015 10.7656 6.21908 10.6727C6.30801 10.5799 6.42936 10.525 6.5578 10.5195Z" fill="#272343" stroke="#272343" stroke-width="1.5" stroke-linecap="round" stroke-linejoin="round"/>
<path fill-rule="evenodd" clip-rule="evenodd" d="M16.8988 10.5195C17.0312 10.5195 17.1583 10.5722 17.252 10.6659C17.3457 10.7595 17.3983 10.8866 17.3983 11.0191C17.3983 11.1516 17.3457 11.2787 17.252 11.3724C17.1583 11.4661 17.0312 11.5187 16.8988 11.5187C16.7663 11.5187 16.6392 11.4661 16.5455 11.3724C16.4518 11.2787 16.3992 11.1516 16.3992 11.0191C16.3992 10.8866 16.4518 10.7595 16.5455 10.6659C16.6392 10.5722 16.7663 10.5195 16.8988 10.5195Z" fill="#272343" stroke="#272343" stroke-width="1.5" stroke-linecap="round" stroke-linejoin="round"/>
</g>
<defs>
<clipPath id="clip0_1_662">
<rect width="22" height="22" fill="white"/>
</clipPath>
</defs>
</svg>
