<svg width="24" height="18" viewBox="0 0 24 18" fill="none" xmlns="http://www.w3.org/2000/svg">
<path d="M12 1.24927C4.5 1.24927 1.5 9.00013 1.5 9.00013C1.5 9.00013 4.5 16.7493 12 16.7493C19.5 16.7493 22.5 9.00013 22.5 9.00013C22.5 9.00013 19.5 1.24927 12 1.24927V1.24927Z" stroke="#272343" stroke-width="1.5" stroke-linecap="round" stroke-linejoin="round"/>
<path d="M12 12.75C12.9946 12.75 13.9484 12.3549 14.6517 11.6517C15.3549 10.9484 15.75 9.99456 15.75 9C15.75 8.00544 15.3549 7.05161 14.6517 6.34835C13.9484 5.64509 12.9946 5.25 12 5.25C11.0054 5.25 10.0516 5.64509 9.34835 6.34835C8.64509 7.05161 8.25 8.00544 8.25 9C8.25 9.99456 8.64509 10.9484 9.34835 11.6517C10.0516 12.3549 11.0054 12.75 12 12.75V12.75Z" stroke="#272343" stroke-width="1.5" stroke-linecap="round" stroke-linejoin="round"/>
</svg>
