<svg width="50" height="50" viewBox="0 0 50 50" fill="none" xmlns="http://www.w3.org/2000/svg">
<g clip-path="url(#clip0_1_585)">
<path d="M47.5936 14.2852C47.4201 13.9197 46.9829 13.7643 46.6178 13.9379C46.2524 14.1114 46.0969 14.5483 46.2705 14.9138C47.7732 18.077 48.5351 21.4705 48.5351 25.0001C48.5351 31.2866 46.0871 37.1968 41.6418 41.642C37.1967 46.0872 31.2865 48.5353 24.9999 48.5353C21.2717 48.5353 17.7063 47.6892 14.403 46.0205C11.6505 44.6301 9.1639 42.678 7.14476 40.3323L10.0345 41.2956C10.4182 41.4235 10.833 41.2161 10.961 40.8323C11.0889 40.4485 10.8815 40.0338 10.4977 39.9059L5.29749 38.1725C5.05667 38.0923 4.79143 38.1423 4.59661 38.305C4.40179 38.4677 4.30501 38.7196 4.34085 38.9709L5.20755 45.0378C5.25979 45.4031 5.57308 45.6667 5.93177 45.6667C5.96624 45.6667 6.0011 45.6643 6.03626 45.6593C6.43675 45.602 6.71497 45.2311 6.65774 44.8307L6.17415 41.4456C8.29319 43.8655 10.8819 45.8829 13.7426 47.328C17.2526 49.1011 21.0401 50.0001 24.9999 50.0001C31.6777 50.0001 37.9558 47.3996 42.6777 42.6778C47.3995 37.9559 50 31.6778 50 25.0001C50 21.2514 49.1904 17.6464 47.5936 14.2852Z" fill="#272343"/>
<path d="M45.6592 11.0293L44.7925 4.9624C44.7353 4.56191 44.3634 4.28389 43.9639 4.34092C43.5634 4.39814 43.2852 4.76914 43.3424 5.16953L43.8255 8.55117C39.0691 3.10156 32.2791 0 25 0C18.3223 0 12.0442 2.60049 7.32227 7.32227C2.60049 12.0442 0 18.3223 0 25C0 28.7488 0.809668 32.3539 2.40635 35.7149C2.53174 35.9789 2.79443 36.1333 3.06846 36.1333C3.17373 36.1333 3.28076 36.1105 3.38223 36.0622C3.74756 35.8887 3.90303 35.4518 3.72949 35.0863C2.22676 31.9233 1.46484 28.5298 1.46484 25C1.46484 18.7135 3.91289 12.8033 8.35811 8.35811C12.8033 3.91289 18.7135 1.46484 25 1.46484C31.9195 1.46484 38.3694 4.44277 42.8531 9.66709L39.9655 8.70459C39.5815 8.57646 39.1669 8.78408 39.0391 9.16787C38.9112 9.55166 39.1185 9.96641 39.5022 10.0943L44.7024 11.8277C44.7782 11.8529 44.8563 11.8653 44.934 11.8653C45.1031 11.8653 45.2697 11.8067 45.4034 11.6952C45.5982 11.5325 45.695 11.2806 45.6592 11.0293Z" fill="#272343"/>
<path d="M22.9646 32.8787H15.5971C15.8913 30.3152 17.7129 28.5953 19.6318 26.7833C21.6305 24.8962 23.6971 22.9449 23.6971 20.0146C23.6971 17.6116 21.5424 15.6565 18.8939 15.6565C16.2455 15.6565 14.0908 17.6116 14.0908 20.0146C14.0908 20.4191 14.4187 20.747 14.8232 20.747C15.2277 20.747 15.5557 20.4191 15.5557 20.0146C15.5557 18.4193 17.0531 17.1213 18.8939 17.1213C20.7348 17.1213 22.2322 18.4193 22.2322 20.0146C22.2322 22.3134 20.4806 23.9673 18.6262 25.7183C16.5003 27.7255 14.0908 30.0006 14.0908 33.6111C14.0908 34.0156 14.4187 34.3435 14.8232 34.3435H22.9646C23.3691 34.3435 23.6971 34.0156 23.6971 33.6111C23.6971 33.2066 23.3691 32.8787 22.9646 32.8787Z" fill="#272343"/>
<path d="M35.1768 28.1816H34.3436V16.3889C34.3436 15.9844 34.0157 15.6565 33.6111 15.6565C33.2065 15.6565 32.8787 15.9844 32.8787 16.3889V28.1817H26.6654L28.8512 16.524C28.9258 16.1264 28.6639 15.7436 28.2663 15.6691C27.8691 15.595 27.4861 15.8564 27.4115 16.254L25.0631 28.7792C25.0229 28.9933 25.0802 29.2142 25.2193 29.3819C25.3585 29.5496 25.565 29.6465 25.7829 29.6465H32.8787V33.6111C32.8787 34.0155 33.2065 34.3434 33.6111 34.3434C34.0157 34.3434 34.3436 34.0155 34.3436 33.611V29.6464H35.1768C35.5814 29.6464 35.9092 29.3185 35.9092 28.914C35.9092 28.5095 35.5814 28.1816 35.1768 28.1816Z" fill="#272343"/>
<path d="M25 3.91406C24.5955 3.91406 24.2676 4.24199 24.2676 4.64648V7.77773C24.2676 8.18223 24.5955 8.51016 25 8.51016C25.4046 8.51016 25.7324 8.18223 25.7324 7.77773V4.64648C25.7324 4.24199 25.4046 3.91406 25 3.91406Z" fill="#272343"/>
<path d="M25 41.4897C24.5955 41.4897 24.2676 41.8177 24.2676 42.2222V45.3534C24.2676 45.7579 24.5955 46.0858 25 46.0858C25.4046 46.0858 25.7324 45.7579 25.7324 45.3534V42.2222C25.7324 41.8177 25.4046 41.4897 25 41.4897Z" fill="#272343"/>
<path d="M45.3533 24.2676H42.222C41.8175 24.2676 41.4896 24.5955 41.4896 25C41.4896 25.4045 41.8175 25.7324 42.222 25.7324H45.3533C45.7579 25.7324 46.0857 25.4045 46.0857 25C46.0857 24.5955 45.7579 24.2676 45.3533 24.2676Z" fill="#272343"/>
<path d="M7.77773 24.2676H4.64648C4.24199 24.2676 3.91406 24.5955 3.91406 25C3.91406 25.4045 4.24199 25.7324 4.64648 25.7324H7.77773C8.18223 25.7324 8.51016 25.4045 8.51016 25C8.51016 24.5955 8.18223 24.2676 7.77773 24.2676Z" fill="#272343"/>
</g>
<defs>
<clipPath id="clip0_1_585">
<rect width="50" height="50" fill="white"/>
</clipPath>
</defs>
</svg>
