<svg width="46" height="46" viewBox="0 0 46 46" fill="none" xmlns="http://www.w3.org/2000/svg">
<g clip-path="url(#clip0_1_553)">
<path d="M44.1788 10.1498L23.293 0.0669785C23.1079 -0.0223262 22.8922 -0.0223262 22.7072 0.0669785L1.82128 10.1498C1.5884 10.2622 1.44043 10.498 1.44043 10.7566V35.2434C1.44043 35.502 1.5884 35.7378 1.82128 35.8502L22.7071 45.933C22.7996 45.9777 22.8999 46 23.0001 46C23.1002 46 23.2004 45.9777 23.293 45.933L44.1788 35.8502C44.4117 35.7378 44.5597 35.502 44.5597 35.2434V10.7567C44.5597 10.4979 44.4116 10.2623 44.1788 10.1498ZM23.0001 1.42209L42.336 10.7566L36.7309 13.4625C36.6954 13.4355 36.6579 13.4105 36.6168 13.3906L17.4122 4.11965L23.0001 1.42209ZM15.8905 4.88153L35.1982 14.2025L31.2438 16.1115L11.944 6.79439L15.8905 4.88153ZM35.65 15.4808V22.5376L31.9562 24.3208V17.264L35.65 15.4808ZM43.212 34.8206L23.6739 44.2526V21.2623L28.3343 19.0124C28.6695 18.8506 28.81 18.4478 28.6482 18.1126C28.4864 17.7776 28.0836 17.6369 27.7484 17.7988L23.0001 20.0912L21.1317 19.1891C20.7965 19.0272 20.3937 19.1679 20.2319 19.503C20.0701 19.8381 20.2106 20.2409 20.5457 20.4028L22.3262 21.2623V44.2526L2.78809 34.8204V11.8301L17.6662 19.0127C17.7606 19.0583 17.8605 19.0799 17.9587 19.0799C18.2091 19.0799 18.4497 18.9396 18.5659 18.6989C18.7277 18.3637 18.5872 17.9609 18.2521 17.7991L3.66415 10.7566L10.358 7.52509L30.5992 17.2968C30.6022 17.3009 30.6055 17.3046 30.6086 17.3086V25.3945C30.6086 25.6264 30.7278 25.8419 30.9242 25.9652C31.0333 26.0337 31.1577 26.0683 31.2825 26.0683C31.3824 26.0683 31.4826 26.0461 31.5754 26.0013L36.6168 23.5675C36.8497 23.4551 36.9976 23.2194 36.9976 22.9607V14.8303L43.212 11.8302V34.8206Z" fill="#272343"/>
<path d="M8.34876 32.207L5.28374 30.7274C4.94844 30.5654 4.54576 30.7061 4.38395 31.0412C4.22214 31.3764 4.36266 31.7792 4.69778 31.941L7.7628 33.4206C7.85722 33.4663 7.95704 33.4879 8.05524 33.4879C8.30572 33.4879 8.54633 33.3475 8.66249 33.1068C8.82439 32.7716 8.68388 32.3689 8.34876 32.207Z" fill="#272343"/>
<path d="M11.1696 30.371L5.28795 27.5315C4.95275 27.3697 4.54998 27.5102 4.38817 27.8454C4.22645 28.1806 4.36697 28.5834 4.70208 28.7452L10.5837 31.5847C10.6781 31.6302 10.7779 31.6519 10.8761 31.6519C11.1266 31.6519 11.3672 31.5115 11.4834 31.2708C11.6452 30.9355 11.5047 30.5327 11.1696 30.371Z" fill="#272343"/>
</g>
<defs>
<clipPath id="clip0_1_553">
<rect width="46" height="46" fill="white"/>
</clipPath>
</defs>
</svg>
