<svg width="40" height="40" viewBox="0 0 40 40" fill="none" xmlns="http://www.w3.org/2000/svg">
<g clip-path="url(#clip0_1_649)">
<path d="M39.9938 11.7464C39.9286 10.4433 39.3566 9.21731 38.3999 8.33012C37.4432 7.44293 36.1776 6.96486 34.8732 6.99795C33.5689 7.03104 32.3292 7.57267 31.4187 8.50723C30.5082 9.44179 29.9991 10.6952 30 12V20.3333C30 19.8913 29.8244 19.4674 29.5119 19.1548C29.1993 18.8422 28.7754 18.6667 28.3334 18.6667H11.6667C11.2247 18.6667 10.8007 18.8422 10.4882 19.1548C10.1756 19.4674 10 19.8913 10 20.3333V12C9.99996 11.0833 9.74791 10.1843 9.27143 9.40127C8.79495 8.6182 8.11237 7.98118 7.2983 7.55983C6.48422 7.13849 5.56999 6.94904 4.65552 7.0122C3.74105 7.07535 2.86154 7.38868 2.11312 7.91793C1.3647 8.44718 0.776167 9.17199 0.411857 10.0131C0.0475467 10.8543 -0.0785237 11.7794 0.0474254 12.6873C0.173374 13.5953 0.546496 14.4511 1.12601 15.1614C1.70552 15.8716 2.46912 16.4088 3.33334 16.7144V25.3333C3.33334 25.7753 3.50893 26.1993 3.8215 26.5118C4.13406 26.8244 4.55798 27 5.00001 27H6.66668V30.3333H10V27H30V30.3333H33.3334V27H35C35.4421 27 35.866 26.8244 36.1786 26.5118C36.4911 26.1993 36.6667 25.7753 36.6667 25.3333V16.7144C37.6824 16.3551 38.5549 15.6775 39.1544 14.7823C39.7539 13.8872 40.0483 12.8224 39.9938 11.7464Z" fill="#029FAE"/>
<path d="M11.6667 11.9998V16.9998H28.3334V11.9998C28.3353 10.5223 28.8271 9.08704 29.7319 7.91888C30.6367 6.75072 31.9033 5.91557 33.3334 5.54421V1.99984C33.3309 -0.209539 32.4522 -2.32771 30.8899 -3.88998C29.3276 -5.45224 27.2095 -6.33101 25.0001 -6.3335H15.0001C12.7907 -6.33101 10.6725 -5.45224 9.11026 -3.88998C7.548 -2.32771 6.66923 -0.209539 6.66675 1.99984V5.54421C8.09689 5.91557 9.3635 6.75072 10.2683 7.91888C11.173 9.08704 11.6649 10.5223 11.6667 11.9998ZM23.3334 0.333169C23.663 0.333169 23.9853 0.430918 24.2594 0.614054C24.5334 0.797189 24.7471 1.05749 24.8732 1.36203C24.9994 1.66657 25.0324 2.00168 24.9681 2.32499C24.9037 2.64829 24.745 2.94526 24.5119 3.17835C24.2788 3.41143 23.9819 3.57017 23.6586 3.63448C23.3353 3.69879 23.0001 3.66578 22.6956 3.53963C22.3911 3.41349 22.1308 3.19987 21.9476 2.92579C21.7645 2.6517 21.6667 2.32947 21.6667 1.99984C21.6667 1.55781 21.8423 1.13389 22.1549 0.821325C22.4675 0.508764 22.8914 0.333169 23.3334 0.333169ZM23.3334 5.33317C23.663 5.33317 23.9853 5.43092 24.2594 5.61405C24.5334 5.79719 24.7471 6.05749 24.8732 6.36203C24.9994 6.66657 25.0324 7.00168 24.9681 7.32499C24.9037 7.64829 24.745 7.94526 24.5119 8.17835C24.2788 8.41143 23.9819 8.57017 23.6586 8.63448C23.3353 8.69879 23.0001 8.66578 22.6956 8.53963C22.3911 8.41349 22.1308 8.19987 21.9476 7.92579C21.7645 7.6517 21.6667 7.32947 21.6667 6.99984C21.6667 6.55781 21.8423 6.13388 22.1549 5.82132C22.4675 5.50876 22.8914 5.33317 23.3334 5.33317ZM16.6667 0.333169C16.9964 0.333169 17.3186 0.430918 17.5927 0.614054C17.8668 0.797189 18.0804 1.05749 18.2065 1.36203C18.3327 1.66657 18.3657 2.00168 18.3014 2.32499C18.2371 2.64829 18.0783 2.94526 17.8453 3.17835C17.6122 3.41143 17.3152 3.57017 16.9919 3.63448C16.6686 3.69879 16.3335 3.66578 16.0289 3.53963C15.7244 3.41349 15.4641 3.19987 15.281 2.92579C15.0978 2.6517 15.0001 2.32947 15.0001 1.99984C15.0001 1.55781 15.1757 1.13389 15.4882 0.821325C15.8008 0.508764 16.2247 0.333169 16.6667 0.333169ZM16.6667 5.33317C16.9964 5.33317 17.3186 5.43092 17.5927 5.61405C17.8668 5.79719 18.0804 6.05749 18.2065 6.36203C18.3327 6.66657 18.3657 7.00168 18.3014 7.32499C18.2371 7.64829 18.0783 7.94526 17.8453 8.17835C17.6122 8.41143 17.3152 8.57017 16.9919 8.63448C16.6686 8.69879 16.3335 8.66578 16.0289 8.53963C15.7244 8.41349 15.4641 8.19987 15.281 7.92579C15.0978 7.6517 15.0001 7.32947 15.0001 6.99984C15.0001 6.55781 15.1757 6.13388 15.4882 5.82132C15.8008 5.50876 16.2247 5.33317 16.6667 5.33317Z" fill="#029FAE"/>
</g>
<defs>
<clipPath id="clip0_1_649">
<rect width="40" height="40" fill="white"/>
</clipPath>
</defs>
</svg>
